<?xml version="1.0" encoding="UTF-8"?>
<!-- The Best Svg Icon site in the world: iconSvg.co, Visit us! https://iconsvg.co -->
<svg fill="#000000" width="800px" height="800px" version="1.1" viewBox="144 144 512 512" xmlns="http://www.w3.org/2000/svg">
 <g>
  <path d="m478.72 163.84c-29.344 0.046874-58.09 8.2891-83 23.797-24.91 15.508-44.996 37.668-57.988 63.977-5.4531-0.74609-10.949-1.1406-16.453-1.1797-33.391 0.042968-65.402 13.328-89.012 36.938-23.613 23.613-36.895 55.625-36.941 89.016v29.598l-14.719 29.441-15.43 23.223c-0.875 1.2734-1.3398 2.7852-1.3398 4.332v23.617-0.003906c0 2.0898 0.83203 4.0898 2.3086 5.5664 1.4766 1.4766 3.4766 2.3047 5.5664 2.3047h15.742v86.594c0 2.0898 0.83203 4.0898 2.3047 5.5664 1.4766 1.4766 3.4805 2.3047 5.5664 2.3047h23.617v47.23h15.742l0.003906-47.23h7.8711c1.3555 0.015625 2.6875-0.33594 3.8555-1.0234l70.848-39.359c1.2266-0.64453 2.2344-1.6289 2.9141-2.832l23.617-39.359-13.539-8.0312-22.516 37.551-67.227 37.312h-37.312v-86.594c0-2.0859-0.83203-4.0898-2.3086-5.5664-1.4766-1.4766-3.4766-2.3047-5.5664-2.3047h-15.742v-13.383l14.406-21.648c0.18359-0.24219 0.34375-0.50781 0.47266-0.78516l15.742-31.488c0.5625-1.0977 0.85938-2.3125 0.86719-3.543v-31.488c0.03125-29.219 11.652-57.234 32.312-77.895 20.664-20.66 48.676-32.281 77.895-32.312 3.3047 0 6.6914 0.23438 9.9961 0.47266l0.003906-0.003907c-6.582 17.465-9.9688 35.973-10 54.633 0 31.539 9.4805 62.348 27.211 88.43 17.727 26.082 42.887 46.23 72.215 57.832l-4.4102 37.785-51.719 29.523c-2.4453 1.4102-3.9453 4.0234-3.9375 6.8477v94.465h15.742l0.003906-89.898 51.168-29.207c2.1445-1.25 3.5742-3.4375 3.8555-5.9023l4.4883-38.414v-0.003906c13.938 3.9219 28.344 5.9336 42.824 5.9844 56.25 0 108.22-30.008 136.35-78.719 28.125-48.715 28.125-108.73 0-157.44-28.125-48.711-80.098-78.723-136.35-78.723zm0 299.14v0.003906c-37.582 0-73.621-14.93-100.2-41.504-26.574-26.574-41.5-62.613-41.5-100.2 0-37.578 14.926-73.621 41.5-100.2 26.574-26.57 62.613-41.5 100.2-41.5s73.621 14.93 100.2 41.5c26.574 26.574 41.5 62.617 41.5 100.2 0.085938 37.609-14.812 73.699-41.406 100.29-26.59 26.594-62.684 41.496-100.29 41.41z"/>
  <path d="m573.18 281.92c-2.6602-0.019531-5.3086 0.32422-7.8711 1.0234v-32.512c0-2.0859-0.83203-4.0898-2.3086-5.5664-1.4766-1.4766-3.4766-2.3047-5.5664-2.3047h-48.254c0.69922-2.5664 1.043-5.2148 1.0234-7.8711 0-11.25-6-21.645-15.746-27.27-9.7422-5.625-21.742-5.625-31.484 0-9.7461 5.625-15.746 16.02-15.746 27.27-0.019531 2.6562 0.32422 5.3047 1.0234 7.8711h-48.254c-4.3477 0-7.875 3.5234-7.875 7.8711v45.422c0.007812 3.1094 1.8438 5.918 4.6836 7.1797 2.8398 1.2578 6.1562 0.72656 8.4648-1.3555 3.0352-2.7188 7.0078-4.1523 11.082-4.0039 4.0703 0.15234 7.9258 1.875 10.754 4.8086 2.8281 2.9336 4.4102 6.8516 4.4102 10.926s-1.582 7.9922-4.4102 10.926c-2.8281 2.9336-6.6836 4.6562-10.754 4.8086-4.0742 0.14844-8.0469-1.2852-11.082-4.0039-2.3086-2.082-5.625-2.6133-8.4648-1.3555-2.8398 1.2617-4.6758 4.0703-4.6836 7.1797v76.91c0 2.0859 0.83203 4.0898 2.3086 5.5664 1.4766 1.4766 3.4766 2.3047 5.5664 2.3047h61.164c3.1094-0.007813 5.918-1.8398 7.1797-4.6836 1.2578-2.8398 0.72656-6.1562-1.3555-8.4609-2.7188-3.0391-4.1523-7.0078-4.0039-11.082 0.15234-4.0742 1.875-7.9297 4.8086-10.758 2.9336-2.8281 6.8516-4.4062 10.926-4.4062s7.9922 1.5781 10.926 4.4062c2.9336 2.8281 4.6562 6.6836 4.8086 10.758 0.14844 4.0742-1.2852 8.043-4.0039 11.082-2.082 2.3047-2.6133 5.6211-1.3555 8.4609 1.2617 2.8438 4.0703 4.6758 7.1797 4.6836h61.164c2.0898 0 4.0898-0.82813 5.5664-2.3047 1.4766-1.4766 2.3086-3.4805 2.3086-5.5664v-64c2.5625 0.69922 5.2109 1.043 7.8711 1.0234 11.25 0 21.645-6 27.27-15.746 5.625-9.7422 5.625-21.742 0-31.484-5.625-9.7461-16.02-15.746-27.27-15.746zm0 47.23c-3.8828 0.007812-7.6211-1.4531-10.469-4.0898-2.3086-2.082-5.625-2.6133-8.4648-1.3555s-4.6758 4.0703-4.6836 7.1797v69.117h-40.383c0.69922-2.5664 1.043-5.2148 1.0234-7.875 0-11.25-6-21.645-15.746-27.27-9.7422-5.625-21.742-5.625-31.484 0-9.7461 5.625-15.746 16.02-15.746 27.27-0.019531 2.6602 0.32422 5.3086 1.0234 7.875h-40.383v-56.129c2.5664 0.69922 5.2148 1.043 7.8711 1.0234 11.25 0 21.645-6 27.27-15.746 5.625-9.7422 5.625-21.742 0-31.484-5.625-9.7461-16.02-15.746-27.27-15.746-2.6562-0.019531-5.3047 0.32422-7.8711 1.0234v-24.641h53.371c3.1094-0.007812 5.9219-1.8398 7.1797-4.6797 1.2578-2.8438 0.72656-6.1602-1.3555-8.4648-2.6367-2.8477-4.0977-6.5898-4.0898-10.469 0-5.625 3-10.824 7.8711-13.637s10.871-2.8125 15.742 0 7.8711 8.0117 7.8711 13.637c0.007812 3.8789-1.4531 7.6211-4.0898 10.469-2.082 2.3047-2.6133 5.6211-1.3555 8.4648 1.2578 2.8398 4.0703 4.6719 7.1797 4.6797h53.371v37.629c0.007813 3.1094 1.8438 5.9219 4.6836 7.1797s6.1562 0.72656 8.4648-1.3555c2.8477-2.6367 6.5859-4.0977 10.469-4.0898 5.625 0 10.82 3 13.633 7.8711s2.8125 10.871 0 15.742-8.0078 7.8711-13.633 7.8711z"/>
  <path d="m321.28 195.32h23.617v15.742h-23.617z"/>
  <path d="m274.05 195.32h31.488v15.742h-31.488z"/>
  <path d="m242.56 211.07h15.742v-15.746h-23.613c-4.3477 0-7.875 3.5273-7.875 7.875v23.617h15.742z"/>
  <path d="m226.81 234.69h15.742v15.742h-15.742z"/>
  <path d="m470.85 533.82h23.617v15.742h-23.617z"/>
  <path d="m510.21 533.82h31.488v15.742h-31.488z"/>
  <path d="m573.18 533.82h-15.746v15.742h23.617c2.0898 0 4.0898-0.82812 5.5664-2.3047 1.4766-1.4766 2.3047-3.4805 2.3047-5.5664v-23.617h-15.742z"/>
  <path d="m573.18 494.46h15.742v15.742h-15.742z"/>
 </g>
</svg>